<svg xmlns="http://www.w3.org/2000/svg" viewBox="0 0 200 36.000001"><g fill="#f58136"><path class="st1" clip-rule="evenodd" fill="#181825" fill-rule="evenodd" d="M67.67145748 15.40453714h.13141684l.91991787 11.82751555h4.53388096L71.48254582 7.3224015h-4.79671464l-4.40246412 11.49897345-4.40246412-11.49897345H53.0841883l-1.83983575 19.90965118h4.53388096l.9856263-11.82751555h.06570841l4.07392202 11.6960987h2.69404521zM79.1047225 17.24435318c0-2.9568789 1.6427105-5.91375778 5.12525675-5.91375778 3.48254624 0 5.12525674 2.95687889 5.12525674 5.91375778 0 2.95687888-1.51129366 5.91375777-5.12525674 5.91375777-3.6796715 0-5.12525674-2.95687889-5.12525674-5.91375777zm-4.86242305 0c0 5.84804935 4.13963044 10.3162219 9.9876798 10.3162219 5.71663251 0 9.9876798-4.53388097 9.9876798-10.3162219 0-5.78234094-4.46817255-10.3162219-9.9876798-10.3162219-5.45379884 0-9.9876798 4.46817254-9.9876798 10.3162219zM96.18891164 27.23205269h4.53388096V14.87886978h.06570842l7.88501037 12.3531829h4.53388096V7.32240152h-4.53388096v12.3531829h-.06570842l-7.88501037-12.3531829h-4.53388096zM120.63244378 11.2649067h6.83367565V7.3224015H116.0985628V27.2320527h11.36755662v-4.0082136h-6.83367565v-4.00821361h6.57084197V15.2731203h-6.57084197zM135.21971296 18.2957076v8.93634509h4.53388096V18.2957076l7.29363459-10.9733061h-5.45379884l-4.13963044 6.37371672-4.13963045-6.37371671h-5.38809041z"/><path class="st2" d="M185.6837793 16.19301846v-5.25667358h1.24845998c1.77412733 0 3.48254625.59137578 3.48254625 2.62833679s-1.70841892 2.62833679-3.48254625 2.62833679h-1.24845998zm-4.53388096-8.87063666v19.90965117h4.53388096v-7.359343h2.69404521c3.87679677 0 6.76796724-2.2997947 6.76796724-6.37371672 0-4.13963044-2.89117047-6.11088303-6.76796724-6.11088303h-7.22792617zm-8.6735114 11.95893239h-4.46817254l2.23408627-5.78234094h.06570842l2.16837785 5.78234094zm-.13141684-11.9589324h-4.20533886l-8.0164272 19.90965118h4.86242305l1.44558524-4.0082136h7.55646826l1.44558524 4.0082136h4.86242306L172.3449701 7.3223818zm-25.2977416 3.94250519h5.51950726v15.967146h4.53388096v-15.967146h4.73100622V7.3223818h-12.09034923l-2.6940452 3.94250518z" clip-rule="evenodd" fill="#f58233" fill-rule="evenodd"/><path class="st3" d="M6.82546081 2.85420926l27.92607838-.06570842c.91991788 0 1.24845998.26283367 1.11704314 1.18275155L34.4229971 16.25872688c-.45995894-.13141684-.91991788-.26283368-1.3141684-.3285421V6.13963024c0-.19712526-.19712526-.39425052-.39425052-.39425052l-24.70636581.06570842c-.19712526 0-.39425052.19712526-.39425052.39425052v24.83778266c0 .19712526.19712526.39425052.39425052.39425052l13.53593446-.06570842c.85420946.85420945 1.83983575 1.7084189 2.82546205 2.56262837l-17.60985649.06570842c-.91991788 0-1.90554417-.6570842-1.90554417-1.57700208V4.69404501c0-.13141684 0-.26283368.06570842-.3285421.26283368-.91991788 1.11704313-1.51129365 1.90554417-1.51129365zm26.48049315 14.91581127l-.13141684-.06570842v-.06570842l.13141684.13141684z" clip-rule="evenodd" fill="#d1d2d4" fill-rule="evenodd"/><path class="st1" d="M7.74537869 1.9999998H35.1457897c.91991788 0 1.6427105.72279262 1.6427105 1.6427105v13.07597552c-.91991788-.13141684-1.70841892-.3285421-2.49691995-.52566736V4.89117026c0-.19712525-.19712526-.39425051-.39425052-.39425051H8.99383866c-.19712526 0-.39425052.19712526-.39425052.39425052v24.90349107c0 .19712526.19712526.39425052.39425052.39425052h11.56468187c.78850104.85420946 1.6427105 1.6427105 2.56262837 2.49691995H7.7453787c-.85420946 0-1.6427105-.72279262-1.6427105-1.6427105V3.57700188c0-.85420945.72279262-1.57700207 1.6427105-1.57700207z" clip-rule="evenodd" fill="#181825" fill-rule="evenodd"/><path class="st2" d="M29.7576993 29.46611924l-.13141684-.06570842C17.1416827 23.35523621 14.51334592 14.6160164 13.98767856 11.46201224c-.06570842 3.15400415 2.03696101 14.12731024 12.81314185 22.3408627 1.18275155.19712527 13.40451762-1.57700207 13.40451762-1.57700207s-2.29979469-.45995894-5.71663252-3.21971256c-2.29979469.19712526-4.20533886.52566735-4.59958938.52566735h-.13141684z" clip-rule="evenodd" fill="#f58233" fill-rule="evenodd"/><path class="st4" d="M39.02258648 20.79260784c-.45995894 0-.9856263 0-1.44558524-.06570842-.19712526 0-.39425052-.06570842-.59137578-.06570842-.78850103-.13141684-1.51129365-.26283368-2.29979469-.52566736-.06570842 0-.06570842-.06570842-.13141684-.06570842-.13141683-.06570842-.19712525-.06570842-.3285421-.13141684-.06570841 0-.13141683-.06570842-.13141683-.06570842-.06570842-.06570842-.19712526-.06570842-.26283368-.13141684-.06570842 0-.13141684-.06570841-.19712526-.06570841-.06570842-.06570842-.19712526-.06570842-.26283368-.13141684-.06570842-.06570842-.13141684-.06570842-.19712526-.13141684-.06570842-.06570842-.13141684-.13141684-.19712526-.13141684-.06570842-.06570842-.13141684-.06570842-.19712526-.13141684-.06570842-.06570842-.13141684-.06570842-.19712526-.13141684l-.19712526-.19712526c-.06570842-.06570842-.13141684-.06570842-.19712526-.13141684l-.19712525-.19712526-.19712526-.19712526-.19712526-.19712526-.19712526-.19712526c-.06570842-.06570842-.13141684-.19712526-.19712526-.26283368-.06570842-.06570842-.13141684-.13141684-.13141684-.19712526-.06570842-.06570842-.19712526-.19712525-.26283368-.3285421-.06570842-.06570841-.06570842-.13141683-.13141684-.19712525-.13141684-.13141684-.26283368-.3285421-.3285421-.52566736 0 0-5.91375777 2.23408627-10.77618083 1.51129365.19712526.13141684.3285421.19712526.45995894.3285421 3.15400414 2.23408627 8.14784404 3.74537993 16.0328544 2.82546205 1.18275156-.13141684 2.49691996-.26283368 3.87679677-.45995894-.3285421.19712526-.6570842.19712526-.91991787.19712526z" clip-rule="evenodd" fill="#dd6726" fill-rule="evenodd"/><path class="st2" d="M34.02874658 22.04106782c-1.90554418.13141683-3.61396309.06570841-5.25667358-.06570842-3.61396309-.3285421-6.70225881-1.37987682-9.06776192-3.08829573-.19712526-.13141684-.3285421-.26283368-.52566736-.3285421-.85420946-.6570842-1.51129366-1.37987681-2.10266943-2.03696101 0 0-1.57700208-1.83983575-2.43121153-4.9938399.19712526.6570842.45995894 1.51129365.78850103 2.43121153.19712526.52566736.45995894 1.11704313.72279262 1.77412733.06570842.06570842.06570842.13141684.06570842.19712526v.06570842c.13141684.26283368.26283368.52566736.39425052.72279262 1.9712526 3.81108834 5.84804935 8.47638614 13.40451762 12.15605765 1.18275156-.06570842 15.24435338-1.77412734 15.24435338-1.77412734s-5.6509241-1.24845997-11.23613977-5.05954831z" clip-rule="evenodd" fill="#f58233" fill-rule="evenodd"/><path class="st2" d="M44.54209373 18.22997947c-2.10266943.06570842-3.94250518 0-5.58521567-.13141684-5.45379884-.45995894-8.87063667-2.03696101-10.90759768-3.6796715-2.95687889-2.2997947-3.28542098-4.86242306-3.28542098-4.86242306l-10.11909664-.3285421v.06570842s.06570842.59137578.26283368 1.51129365c.06570842.26283368.19712526.59137578.26283368.91991788.3285421.9856263.85420945 2.10266943 1.64271049 3.28542098.3285421.52566736.78850104 1.05133472 1.3141684 1.57700208l.19712525.19712526.13141684.13141684c.19712526.19712526.59137578.45995893.91991788.59137577.06570842 0 .13141684.06570842.19712526.06570842.26283368.06570842.45995894.06570842.72279261.06570842 2.43121153.26283368 5.12525674-.26283368 7.09650933-.72279261 1.6427105-.45995894 2.82546205-.85420946 2.82546205-.85420946l.19712526-.06570842.13141684.19712526c.13141684.19712526.19712526.3285421.3285421.45995894 0 .06570842.06570842.06570842.06570842.06570842l.06570842.06570842c.06570842.06570842.13141684.19712526.19712526.3285421l.13141684.13141684.06570842.06570841.19712526.19712526.13141684.13141684.06570842.06570842.19712526.19712526.19712525.19712526.19712526.19712526c.06570842.06570842.13141684.13141684.19712526.13141684l.19712526.19712526c.06570842.06570842.13141684.06570842.19712526.13141684.06570842.06570842.13141684.06570842.19712526.13141684.06570842.06570842.19712526.06570842.26283368.13141684.06570842.06570842.13141684.06570842.19712526.13141684.06570842.06570842.19712526.06570842.26283368.13141684.06570842 0 .13141684.06570842.19712526.06570842.13141684.06570842.19712526.06570842.26283368.13141684.06570842 0 .19712525.06570842.19712525.06570842.13141684.06570842.19712526.06570842.3285421.13141684l.13141684.06570841c.72279262.26283368 1.44558524.45995894 2.23408627.52566736h.06570842c.13141684 0 .26283368.06570842.39425052.06570842h.13141684c.45995894.06570842.91991788.06570842 1.44558523.06570842h.78850104c.13141684 0 .3285421-.06570842.52566736-.06570842.19712526 0 .39425052-.06570842.59137578-.06570842.3285421-.06570842.6570842-.06570842 1.05133471-.19712526.45995894-.06570842.91991788-.19712526 1.37987682-.3285421.06570842 0 .13141684-.06570841.26283368-.06570841.9856263-.3285421 2.10266943-.78850104 3.15400414-1.44558524-.9856263-.06570842-1.77412733 0-2.49691995 0z" clip-rule="evenodd" fill="#f58233" fill-rule="evenodd"/></g></svg>